# xmcd CD database file generated by Grip 2.6
# 
# Track frame offsets:
#       150
#       18425
#       37207
#       55623
#       92309
#       110463
#       128410
#       145903
# 
# Disc length: 2628 seconds
# 
# Revision: 3
# Processed by: cddbd v1.4b41PL1 Copyright (c) Steve Scherf et al.
# Submitted via: Grip 2.6
# 
DISCID=5e0a4208
DTITLE=Kolme alienia aterialla - Kaksi alienia ja nainen
DYEAR=1900
DGENRE=
TTITLE0=Kahden alienin alkupalat naisen kanssa
TTITLE1=Kaksi alienia ottavat napsun ja ryhtyvät herkuttelemaan
TTITLE2=Nainen on aivan valmis suuhun ja pantavaksi
TTITLE3=Naiseen on hyvä lisätä hieman pippuria ja sitten valkosipulipedillä...
TTITLE4=Kahta alienia meinaa naurattaa, mutta vielä maistuu nainen
TTITLE5=Namustelupaloille yrittää kolmas alieni, mutta naista ei riitä kaikille
TTITLE6=Naista himottaa vielä hieman, onhan alienien ruokahalu kyltymätön
TTITLE7=Kahta alienia hiukoo jo hieman, mutta onhan noita naisia...
EXTD=
EXTT0=
EXTT1=
EXTT2=
EXTT3=
EXTT4=
EXTT5=
EXTT6=
EXTT7=
PLAYORDER=
